<svg id="Capa_1" enable-background="new 0 0 512.002 512.002" height="512" viewBox="0 0 512.002 512.002" width="512" xmlns="http://www.w3.org/2000/svg"><g><path d="m249.839 448.914c7.145 4.224 16.338 1.836 20.545-5.281l12.229-20.69c27.669-8.705 50.843-27.061 65.713-52.221l161.587-273.391c4.215-7.132 1.851-16.33-5.28-20.545-35.604-21.043-81.685-9.197-102.728 26.404-16.084 27.212-109.595 185.425-131.058 221.739-14.872 25.16-19.777 54.313-14.061 82.75l-12.229 20.691c-4.214 7.13-1.85 16.329 5.282 20.544zm154.996-291.721 25.826 15.264-76.323 129.132-25.826-15.264zm70.311-60.001-29.221 49.44-25.826-15.264 7.632-12.913c9.877-16.711 29.089-24.846 47.415-21.263zm-178.472 243.001 16.574-28.042 25.826 15.265-16.574 28.041c-9.023 15.267-22.152 27.171-37.852 34.562-1.096-17.318 3.002-34.56 12.026-49.826z"/><path d="m15 241.001h181c8.284 0 15-6.716 15-15v-180c0-8.284-6.716-15-15-15h-181c-8.284 0-15 6.716-15 15v180c0 8.284 6.716 15 15 15zm15-180h151v150h-151z"/><path d="m134.394 102.895-34.394 34.393-11.894-11.893c-5.857-5.858-15.355-5.858-21.213 0s-5.858 15.355 0 21.213l22.5 22.5c5.857 5.858 15.355 5.858 21.213 0l45-45c5.858-5.858 5.858-15.355 0-21.213-5.857-5.858-15.355-5.858-21.212 0z"/><path d="m15 481.001h181c8.284 0 15-6.716 15-15v-180c0-8.284-6.716-15-15-15h-181c-8.284 0-15 6.716-15 15v180c0 8.284 6.716 15 15 15zm15-180h151v150h-151z"/><path d="m134.394 342.894-34.394 34.394-11.894-11.894c-5.857-5.858-15.355-5.858-21.213 0s-5.858 15.355 0 21.213l22.5 22.5c5.857 5.857 15.355 5.858 21.213 0l45-45c5.858-5.858 5.858-15.355 0-21.213-5.857-5.858-15.355-5.858-21.212 0z"/></g></svg>